<svg xmlns="http://www.w3.org/2000/svg" xmlns:xlink="http://www.w3.org/1999/xlink" width="666.4" height="349.6" viewBox="0 0 666.4 349.6"><path fill="none" stroke="#000" stroke-linecap="round" stroke-width="5.485" d="M 413.400,94.400 C 409.769,95.075 409.800,95.200 406.200,96.000"/><path fill="none" stroke="#000" stroke-linecap="round" stroke-width="3.54" d="M 406.200,96.000 C 398.949,97.834 398.969,97.875 391.800,100.000"/><path fill="none" stroke="#000" stroke-linecap="round" stroke-width="3.251" d="M 391.800,100.000 C 385.908,102.380 385.749,101.834 379.800,104.000"/><path fill="none" stroke="#000" stroke-linecap="round" stroke-width="2.374" d="M 379.800,104.000 C 366.108,106.876 366.308,107.580 352.600,110.400"/><path fill="none" stroke="#000" stroke-linecap="round" stroke-width="3.035" d="M 352.600,110.400 C 347.586,111.562 347.708,111.676 343.000,113.600"/><path fill="none" stroke="#000" stroke-linecap="round" stroke-width="3.766" d="M 343.000,113.600 C 340.089,114.723 340.386,114.762 338.200,116.800"/><path fill="none" stroke="#000" stroke-linecap="round" stroke-width="4.378" d="M 338.200,116.800 C 336.554,119.574 336.089,119.123 335.000,122.400"/><path fill="none" stroke="#000" stroke-linecap="round" stroke-width="4.21" d="M 335.000,122.400 C 332.285,127.648 332.154,127.574 329.400,132.800"/><path fill="none" stroke="#000" stroke-linecap="round" stroke-width="3.669" d="M 329.400,132.800 C 326.384,137.491 326.685,137.648 323.800,142.400"/><path fill="none" stroke="#000" stroke-linecap="round" stroke-width="3.987" d="M 323.800,142.400 C 321.195,145.329 322.384,145.091 321.400,148.000"/><path fill="none" stroke="#000" stroke-linecap="round" stroke-width="4.837" d="M 321.400,148.000 C 325.359,151.662 321.595,150.529 324.600,152.800"/><path fill="none" stroke="#000" stroke-linecap="round" stroke-width="5.05" d="M 324.600,152.800 C 320.704,154.382 323.759,154.062 318.200,152.800"/><path fill="none" stroke="#000" stroke-linecap="round" stroke-width="3.507" d="M 318.200,152.800 C 312.475,148.870 313.104,149.582 309.400,143.200"/><path fill="none" stroke="#000" stroke-linecap="round" stroke-width="1.955" d="M 309.400,143.200 C 299.845,124.702 299.675,125.270 292.600,105.600"/><path fill="none" stroke="#000" stroke-linecap="round" stroke-width="2.95" d="M 292.600,105.600 C 292.010,101.209 291.045,101.502 291.800,96.800"/><path fill="none" stroke="#000" stroke-linecap="round" stroke-width="3.468" d="M 291.800,96.800 C 290.647,92.451 291.610,92.809 291.800,88.800"/><path fill="none" stroke="#000" stroke-linecap="round" stroke-width="4.105" d="M 291.800,88.800 C 293.520,84.487 293.047,84.851 296.600,81.600"/><path fill="none" stroke="#000" stroke-linecap="round" stroke-width="3.762" d="M 296.600,81.600 C 300.450,78.875 299.920,78.487 304.600,76.800"/><path fill="none" stroke="#000" stroke-linecap="round" stroke-width="4.106" d="M 304.600,76.800 C 306.920,75.510 306.850,75.675 309.400,75.200"/><path fill="none" stroke="#000" stroke-linecap="round" stroke-width="3.905" d="M 309.400,75.200 C 313.697,73.829 313.320,74.710 317.400,75.200"/><path fill="none" stroke="#000" stroke-linecap="round" stroke-width="1.992" d="M 317.400,75.200 C 336.600,80.950 335.297,81.829 352.600,91.200"/><path fill="none" stroke="#000" stroke-linecap="round" stroke-width="2.195" d="M 352.600,91.200 C 361.444,98.988 362.200,97.350 368.600,108.000"/><path fill="none" stroke="#000" stroke-linecap="round" stroke-width="2.877" d="M 368.600,108.000 C 372.533,112.843 372.244,112.588 374.200,118.400"/><path fill="none" stroke="#000" stroke-linecap="round" stroke-width="3.04" d="M 374.200,118.400 C 375.800,125.265 376.133,124.843 375.800,132.000"/><path fill="none" stroke="#000" stroke-linecap="round" stroke-width="3.763" d="M 375.800,132.000 C 376.088,135.513 375.800,134.865 374.200,137.600"/><path fill="none" stroke="#000" stroke-linecap="round" stroke-width="3.002" d="M 374.200,137.600 C 367.962,144.115 368.488,143.913 360.600,148.800"/><path fill="none" stroke="#000" stroke-linecap="round" stroke-width="3.061" d="M 360.600,148.800 C 354.457,152.387 354.762,152.515 347.800,154.400"/><path fill="none" stroke="#000" stroke-linecap="round" stroke-width="2.601" d="M 347.800,154.400 C 337.127,159.052 337.257,157.587 326.200,159.200"/><path fill="none" stroke="#000" stroke-linecap="round" stroke-width="1.936" d="M 326.200,159.200 C 306.572,159.878 307.527,159.452 288.600,155.200"/><path fill="none" stroke="#000" stroke-linecap="round" stroke-width="2.259" d="M 288.600,155.200 C 277.809,150.232 277.372,152.278 267.800,144.000"/><path fill="none" stroke="#000" stroke-linecap="round" stroke-width="2.161" d="M 267.800,144.000 C 256.486,137.029 256.609,137.032 246.200,128.800"/><path fill="none" stroke="#000" stroke-linecap="round" stroke-width="2.45" d="M 246.200,128.800 C 238.172,122.528 238.486,122.629 231.800,115.200"/><path fill="none" stroke="#000" stroke-linecap="round" stroke-width="3.493" d="M 231.800,115.200 C 229.452,112.269 230.172,113.328 230.200,110.400"/><path fill="none" stroke="#000" stroke-linecap="round" stroke-width="4.321" d="M 230.200,110.400 C 232.314,107.990 231.052,108.269 235.000,107.200"/><path fill="none" stroke="#000" stroke-linecap="round" stroke-width="3.922" d="M 235.000,107.200 C 239.423,106.991 239.114,105.990 243.800,106.400"/><path fill="none" stroke="#000" stroke-linecap="round" stroke-width="2.817" d="M 243.800,106.400 C 254.113,103.758 254.223,104.991 264.600,103.200"/><path fill="none" stroke="#000" stroke-linecap="round" stroke-width="1.589" d="M 264.600,103.200 C 291.801,102.861 291.713,101.758 319.000,102.400"/><path fill="none" stroke="#000" stroke-linecap="round" stroke-width="1.125" d="M 319.000,102.400 C 362.698,99.699 362.601,101.661 406.200,100.800"/><path fill="none" stroke="#000" stroke-linecap="round" stroke-width="1.395" d="M 406.200,100.800 C 425.856,102.852 425.899,101.299 445.400,105.600"/></svg>